{
    "asset" : {
        "generator" : "Khronos glTF Blender I/O v3.4.50",
        "version" : "2.0"
    },
    "extensionsUsed" : [
        "KHR_materials_specular",
        "KHR_materials_ior"
    ],
    "scene" : 0,
    "scenes" : [
        {
            "name" : "Scene",
            "nodes" : [
                0,
                1,
                2
            ]
        }
    ],
    "nodes" : [
        {
            "mesh" : 0,
            "name" : "TQ_ARD-node",
            "translation" : [
                -0.15145069360733032,
                0.024782469496130943,
                0.024224134162068367
            ]
        },
        {
            "mesh" : 1,
            "name" : "TQ_ARD-node.001",
            "translation" : [
                0.08418990671634674,
                0.035224080085754395,
                -0.029051443561911583
            ]
        },
        {
            "mesh" : 2,
            "name" : "TQ_ARD-node.002",
            "translation" : [
                0.011317173950374126,
                0.024782469496130943,
                0.14051571488380432
            ]
        }
    ],
    "materials" : [
        {
            "doubleSided" : true,
            "extensions" : {
                "KHR_materials_specular" : {
                    "specularColorFactor" : [
                        0,
                        0,
                        0
                    ]
                },
                "KHR_materials_ior" : {
                    "ior" : 0
                }
            },
            "name" : "TQ_ARD_front",
            "pbrMetallicRoughness" : {
                "baseColorTexture" : {
                    "index" : 0
                },
                "metallicFactor" : 0,
                "roughnessFactor" : 0.5
            }
        },
        {
            "doubleSided" : true,
            "extensions" : {
                "KHR_materials_specular" : {
                    "specularColorFactor" : [
                        0,
                        0,
                        0
                    ]
                },
                "KHR_materials_ior" : {
                    "ior" : 0
                }
            },
            "name" : "TQ_ARD_back",
            "pbrMetallicRoughness" : {
                "baseColorFactor" : [
                    0.996078372001648,
                    0.9019607901573181,
                    0.6627451181411743,
                    1
                ],
                "metallicFactor" : 0,
                "roughnessFactor" : 0.5
            }
        },
        {
            "doubleSided" : true,
            "extensions" : {
                "KHR_materials_specular" : {
                    "specularColorFactor" : [
                        0,
                        0,
                        0
                    ]
                },
                "KHR_materials_ior" : {
                    "ior" : 0
                }
            },
            "name" : "TQ_ARD_edge",
            "pbrMetallicRoughness" : {
                "baseColorTexture" : {
                    "index" : 1
                },
                "metallicFactor" : 0,
                "roughnessFactor" : 0.5
            }
        },
        {
            "doubleSided" : true,
            "extensions" : {
                "KHR_materials_specular" : {
                    "specularColorFactor" : [
                        0,
                        0,
                        0
                    ]
                },
                "KHR_materials_ior" : {
                    "ior" : 0
                }
            },
            "name" : "TQ_ARD_front.001",
            "pbrMetallicRoughness" : {
                "baseColorTexture" : {
                    "index" : 2
                },
                "metallicFactor" : 0,
                "roughnessFactor" : 0.5
            }
        },
        {
            "doubleSided" : true,
            "extensions" : {
                "KHR_materials_specular" : {
                    "specularColorFactor" : [
                        0,
                        0,
                        0
                    ]
                },
                "KHR_materials_ior" : {
                    "ior" : 0
                }
            },
            "name" : "back-dil",
            "pbrMetallicRoughness" : {
                "baseColorFactor" : [
                    0.7467696070671082,
                    0.544954776763916,
                    0.2956169843673706,
                    1
                ],
                "metallicFactor" : 0
            }
        },
        {
            "doubleSided" : true,
            "extensions" : {
                "KHR_materials_specular" : {
                    "specularColorFactor" : [
                        0,
                        0,
                        0
                    ]
                },
                "KHR_materials_ior" : {
                    "ior" : 0
                }
            },
            "name" : "TQ_ARD_edge.001",
            "pbrMetallicRoughness" : {
                "baseColorTexture" : {
                    "index" : 3
                },
                "metallicFactor" : 0,
                "roughnessFactor" : 0.5
            }
        }
    ],
    "meshes" : [
        {
            "name" : "TQ_ARD-geom",
            "primitives" : [
                {
                    "attributes" : {
                        "POSITION" : 0,
                        "TEXCOORD_0" : 1,
                        "NORMAL" : 2
                    },
                    "indices" : 3,
                    "material" : 0
                },
                {
                    "attributes" : {
                        "POSITION" : 4,
                        "TEXCOORD_0" : 5,
                        "NORMAL" : 6
                    },
                    "indices" : 7,
                    "material" : 1
                },
                {
                    "attributes" : {
                        "POSITION" : 8,
                        "TEXCOORD_0" : 9,
                        "NORMAL" : 10
                    },
                    "indices" : 11,
                    "material" : 2
                }
            ]
        },
        {
            "name" : "TQ_ARD-geom.001",
            "primitives" : [
                {
                    "attributes" : {
                        "POSITION" : 12,
                        "TEXCOORD_0" : 13,
                        "NORMAL" : 14
                    },
                    "indices" : 15,
                    "material" : 3
                },
                {
                    "attributes" : {
                        "POSITION" : 16,
                        "TEXCOORD_0" : 17,
                        "NORMAL" : 18
                    },
                    "indices" : 19,
                    "material" : 4
                },
                {
                    "attributes" : {
                        "POSITION" : 20,
                        "TEXCOORD_0" : 21,
                        "NORMAL" : 22
                    },
                    "indices" : 23,
                    "material" : 5
                }
            ]
        },
        {
            "name" : "TQ_ARD-geom.002",
            "primitives" : [
                {
                    "attributes" : {
                        "POSITION" : 24,
                        "TEXCOORD_0" : 25,
                        "NORMAL" : 26
                    },
                    "indices" : 27,
                    "material" : 0
                },
                {
                    "attributes" : {
                        "POSITION" : 28,
                        "TEXCOORD_0" : 29,
                        "NORMAL" : 30
                    },
                    "indices" : 31,
                    "material" : 1
                },
                {
                    "attributes" : {
                        "POSITION" : 32,
                        "TEXCOORD_0" : 33,
                        "NORMAL" : 34
                    },
                    "indices" : 35,
                    "material" : 2
                }
            ]
        }
    ],
    "textures" : [
        {
            "sampler" : 0,
            "source" : 0
        },
        {
            "sampler" : 0,
            "source" : 1
        },
        {
            "sampler" : 0,
            "source" : 0
        },
        {
            "sampler" : 0,
            "source" : 1
        }
    ],
    "images" : [
        {
            "bufferView" : 4,
            "mimeType" : "image/jpeg",
            "name" : "1-01"
        },
        {
            "bufferView" : 13,
            "mimeType" : "image/png",
            "name" : "TQ_ARD-I1"
        }
    ],
    "accessors" : [
        {
            "bufferView" : 0,
            "componentType" : 5126,
            "count" : 2013,
            "max" : [
                0.09435305744409561,
                0.01364174298942089,
                0.11180028319358826
            ],
            "min" : [
                -0.06952658295631409,
                -0.024672096595168114,
                -0.09804756939411163
            ],
            "type" : "VEC3"
        },
        {
            "bufferView" : 1,
            "componentType" : 5126,
            "count" : 2013,
            "type" : "VEC2"
        },
        {
            "bufferView" : 2,
            "componentType" : 5126,
            "count" : 2013,
            "type" : "VEC3"
        },
        {
            "bufferView" : 3,
            "componentType" : 5123,
            "count" : 3678,
            "type" : "SCALAR"
        },
        {
            "bufferView" : 5,
            "componentType" : 5126,
            "count" : 1672,
            "max" : [
                0.09383993595838547,
                0.012749487534165382,
                0.11091151833534241
            ],
            "min" : [
                -0.06901347637176514,
                -0.024672096595168114,
                -0.09715881198644638
            ],
            "type" : "VEC3"
        },
        {
            "bufferView" : 6,
            "componentType" : 5126,
            "count" : 1672,
            "type" : "VEC2"
        },
        {
            "bufferView" : 7,
            "componentType" : 5126,
            "count" : 1672,
            "type" : "VEC3"
        },
        {
            "bufferView" : 8,
            "componentType" : 5123,
            "count" : 3678,
            "type" : "SCALAR"
        },
        {
            "bufferView" : 9,
            "componentType" : 5126,
            "count" : 2847,
            "max" : [
                0.09435305744409561,
                0.01364174298942089,
                0.11180028319358826
            ],
            "min" : [
                -0.06952658295631409,
                -0.024672096595168114,
                -0.09804756939411163
            ],
            "type" : "VEC3"
        },
        {
            "bufferView" : 10,
            "componentType" : 5126,
            "count" : 2847,
            "type" : "VEC2"
        },
        {
            "bufferView" : 11,
            "componentType" : 5126,
            "count" : 2847,
            "type" : "VEC3"
        },
        {
            "bufferView" : 12,
            "componentType" : 5123,
            "count" : 4056,
            "type" : "SCALAR"
        },
        {
            "bufferView" : 14,
            "componentType" : 5126,
            "count" : 1909,
            "max" : [
                0.099542036652565,
                0.07468396425247192,
                0.042264439165592194
            ],
            "min" : [
                -0.10004550963640213,
                -0.035269491374492645,
                -0.09017518907785416
            ],
            "type" : "VEC3"
        },
        {
            "bufferView" : 15,
            "componentType" : 5126,
            "count" : 1909,
            "type" : "VEC2"
        },
        {
            "bufferView" : 16,
            "componentType" : 5126,
            "count" : 1909,
            "type" : "VEC3"
        },
        {
            "bufferView" : 17,
            "componentType" : 5123,
            "count" : 3678,
            "type" : "SCALAR"
        },
        {
            "bufferView" : 18,
            "componentType" : 5126,
            "count" : 1634,
            "max" : [
                0.09851579368114471,
                0.07364246249198914,
                0.04110007733106613
            ],
            "min" : [
                -0.09902864694595337,
                -0.03526948764920235,
                -0.08913369476795197
            ],
            "type" : "VEC3"
        },
        {
            "bufferView" : 19,
            "componentType" : 5126,
            "count" : 1634,
            "type" : "VEC2"
        },
        {
            "bufferView" : 20,
            "componentType" : 5126,
            "count" : 1634,
            "type" : "VEC3"
        },
        {
            "bufferView" : 21,
            "componentType" : 5123,
            "count" : 3678,
            "type" : "SCALAR"
        },
        {
            "bufferView" : 22,
            "componentType" : 5126,
            "count" : 2471,
            "max" : [
                0.099542036652565,
                0.07468396425247192,
                0.042264439165592194
            ],
            "min" : [
                -0.10004550963640213,
                -0.035269491374492645,
                -0.09017518907785416
            ],
            "type" : "VEC3"
        },
        {
            "bufferView" : 23,
            "componentType" : 5126,
            "count" : 2471,
            "type" : "VEC2"
        },
        {
            "bufferView" : 24,
            "componentType" : 5126,
            "count" : 2471,
            "type" : "VEC3"
        },
        {
            "bufferView" : 25,
            "componentType" : 5123,
            "count" : 4056,
            "type" : "SCALAR"
        },
        {
            "bufferView" : 26,
            "componentType" : 5126,
            "count" : 1898,
            "max" : [
                0.02536078169941902,
                0.01364174298942089,
                0.10004629194736481
            ],
            "min" : [
                -0.051482100039720535,
                -0.024672096595168114,
                -0.09954123944044113
            ],
            "type" : "VEC3"
        },
        {
            "bufferView" : 27,
            "componentType" : 5126,
            "count" : 1898,
            "type" : "VEC2"
        },
        {
            "bufferView" : 28,
            "componentType" : 5126,
            "count" : 1898,
            "type" : "VEC3"
        },
        {
            "bufferView" : 29,
            "componentType" : 5123,
            "count" : 3678,
            "type" : "SCALAR"
        },
        {
            "bufferView" : 30,
            "componentType" : 5126,
            "count" : 1624,
            "max" : [
                0.02419641986489296,
                0.012749487534165382,
                0.09902940690517426
            ],
            "min" : [
                -0.05118833854794502,
                -0.024672096595168114,
                -0.09851499646902084
            ],
            "type" : "VEC3"
        },
        {
            "bufferView" : 31,
            "componentType" : 5126,
            "count" : 1624,
            "type" : "VEC2"
        },
        {
            "bufferView" : 32,
            "componentType" : 5126,
            "count" : 1624,
            "type" : "VEC3"
        },
        {
            "bufferView" : 33,
            "componentType" : 5123,
            "count" : 3678,
            "type" : "SCALAR"
        },
        {
            "bufferView" : 34,
            "componentType" : 5126,
            "count" : 2372,
            "max" : [
                0.02536078169941902,
                0.01364174298942089,
                0.10004629194736481
            ],
            "min" : [
                -0.051482100039720535,
                -0.024672096595168114,
                -0.09954123944044113
            ],
            "type" : "VEC3"
        },
        {
            "bufferView" : 35,
            "componentType" : 5126,
            "count" : 2372,
            "type" : "VEC2"
        },
        {
            "bufferView" : 36,
            "componentType" : 5126,
            "count" : 2372,
            "type" : "VEC3"
        },
        {
            "bufferView" : 37,
            "componentType" : 5123,
            "count" : 4056,
            "type" : "SCALAR"
        }
    ],
    "bufferViews" : [
        {
            "buffer" : 0,
            "byteLength" : 24156,
            "byteOffset" : 0,
            "target" : 34962
        },
        {
            "buffer" : 0,
            "byteLength" : 16104,
            "byteOffset" : 24156,
            "target" : 34962
        },
        {
            "buffer" : 0,
            "byteLength" : 24156,
            "byteOffset" : 40260,
            "target" : 34962
        },
        {
            "buffer" : 0,
            "byteLength" : 7356,
            "byteOffset" : 64416,
            "target" : 34963
        },
        {
            "buffer" : 0,
            "byteLength" : 121920,
            "byteOffset" : 71772
        },
        {
            "buffer" : 0,
            "byteLength" : 20064,
            "byteOffset" : 193692,
            "target" : 34962
        },
        {
            "buffer" : 0,
            "byteLength" : 13376,
            "byteOffset" : 213756,
            "target" : 34962
        },
        {
            "buffer" : 0,
            "byteLength" : 20064,
            "byteOffset" : 227132,
            "target" : 34962
        },
        {
            "buffer" : 0,
            "byteLength" : 7356,
            "byteOffset" : 247196,
            "target" : 34963
        },
        {
            "buffer" : 0,
            "byteLength" : 34164,
            "byteOffset" : 254552,
            "target" : 34962
        },
        {
            "buffer" : 0,
            "byteLength" : 22776,
            "byteOffset" : 288716,
            "target" : 34962
        },
        {
            "buffer" : 0,
            "byteLength" : 34164,
            "byteOffset" : 311492,
            "target" : 34962
        },
        {
            "buffer" : 0,
            "byteLength" : 8112,
            "byteOffset" : 345656,
            "target" : 34963
        },
        {
            "buffer" : 0,
            "byteLength" : 767,
            "byteOffset" : 353768
        },
        {
            "buffer" : 0,
            "byteLength" : 22908,
            "byteOffset" : 354536,
            "target" : 34962
        },
        {
            "buffer" : 0,
            "byteLength" : 15272,
            "byteOffset" : 377444,
            "target" : 34962
        },
        {
            "buffer" : 0,
            "byteLength" : 22908,
            "byteOffset" : 392716,
            "target" : 34962
        },
        {
            "buffer" : 0,
            "byteLength" : 7356,
            "byteOffset" : 415624,
            "target" : 34963
        },
        {
            "buffer" : 0,
            "byteLength" : 19608,
            "byteOffset" : 422980,
            "target" : 34962
        },
        {
            "buffer" : 0,
            "byteLength" : 13072,
            "byteOffset" : 442588,
            "target" : 34962
        },
        {
            "buffer" : 0,
            "byteLength" : 19608,
            "byteOffset" : 455660,
            "target" : 34962
        },
        {
            "buffer" : 0,
            "byteLength" : 7356,
            "byteOffset" : 475268,
            "target" : 34963
        },
        {
            "buffer" : 0,
            "byteLength" : 29652,
            "byteOffset" : 482624,
            "target" : 34962
        },
        {
            "buffer" : 0,
            "byteLength" : 19768,
            "byteOffset" : 512276,
            "target" : 34962
        },
        {
            "buffer" : 0,
            "byteLength" : 29652,
            "byteOffset" : 532044,
            "target" : 34962
        },
        {
            "buffer" : 0,
            "byteLength" : 8112,
            "byteOffset" : 561696,
            "target" : 34963
        },
        {
            "buffer" : 0,
            "byteLength" : 22776,
            "byteOffset" : 569808,
            "target" : 34962
        },
        {
            "buffer" : 0,
            "byteLength" : 15184,
            "byteOffset" : 592584,
            "target" : 34962
        },
        {
            "buffer" : 0,
            "byteLength" : 22776,
            "byteOffset" : 607768,
            "target" : 34962
        },
        {
            "buffer" : 0,
            "byteLength" : 7356,
            "byteOffset" : 630544,
            "target" : 34963
        },
        {
            "buffer" : 0,
            "byteLength" : 19488,
            "byteOffset" : 637900,
            "target" : 34962
        },
        {
            "buffer" : 0,
            "byteLength" : 12992,
            "byteOffset" : 657388,
            "target" : 34962
        },
        {
            "buffer" : 0,
            "byteLength" : 19488,
            "byteOffset" : 670380,
            "target" : 34962
        },
        {
            "buffer" : 0,
            "byteLength" : 7356,
            "byteOffset" : 689868,
            "target" : 34963
        },
        {
            "buffer" : 0,
            "byteLength" : 28464,
            "byteOffset" : 697224,
            "target" : 34962
        },
        {
            "buffer" : 0,
            "byteLength" : 18976,
            "byteOffset" : 725688,
            "target" : 34962
        },
        {
            "buffer" : 0,
            "byteLength" : 28464,
            "byteOffset" : 744664,
            "target" : 34962
        },
        {
            "buffer" : 0,
            "byteLength" : 8112,
            "byteOffset" : 773128,
            "target" : 34963
        }
    ],
    "samplers" : [
        {
            "magFilter" : 9729,
            "minFilter" : 9987
        }
    ],
    "buffers" : [
        {
            "byteLength" : 781240,
            "uri" : "data:application/octet-stream;base64,"
        }
    ]
}
